<?xml version="1.0" encoding="UTF-8"?><svg id="b" xmlns="http://www.w3.org/2000/svg" viewBox="0 0 549.0566 162.0913"><defs><style>.d{fill:#fff;}</style></defs><g id="c"><path class="d" d="M158.5334,78.3735c-4.015,0-7.3089-.4874-9.8796-1.4582-2.5728-.9728-4.4684-2.7605-5.6929-5.3633-1.2225-2.6027-1.8337-6.382-1.8337-11.3378V11.9446h14.4899v46.1043c0,3.0742.4235,5.2215,1.2704,6.4459.8469,1.2225,2.6167,1.8337,5.3153,1.8337.7531,0,1.3783-.014,1.8816-.0459.5014-.032,1.0027-.0779,1.5061-.1418v11.949c-.6292.0619-1.3024.1099-2.0235.1418-.7211.03-1.5061.0619-2.3531.0939s-1.7398.0479-2.6806.0479Z"/><path class="d" d="M186.4764,79.0307c-3.5755,0-6.6317-.6911-9.1725-2.0694-2.5408-1.3783-4.4704-3.2759-5.7868-5.6929-1.3184-2.413-1.9755-5.0956-1.9755-8.0439,0-4.9538,1.5201-8.751,4.5623-11.3858,3.0422-2.6347,7.6364-3.9511,13.7847-3.9511h14.1143v-2.0694c0-3.0122-.7071-5.0816-2.1174-6.2102-1.4122-1.1286-3.3738-1.6939-5.8806-1.6939-2.385,0-4.1408.3615-5.2694,1.0826s-1.7578,1.8976-1.8816,3.5276h-14.4899c.1878-3.0102,1.1426-5.7069,2.8684-8.0919,1.7258-2.383,4.2027-4.2647,7.4347-5.6449,3.23-1.3803,7.165-2.0694,11.8072-2.0694,4.3905,0,8.2477.6572,11.5735,1.9755,3.3238,1.3164,5.9106,3.4337,7.7623,6.3501,1.8497,2.9164,2.7765,6.8215,2.7765,11.7153v18.347c0,2.6347.0619,4.9398.1878,6.9153.1238,1.9755.3136,3.9051.5633,5.7868h-13.8307c-.0619-1.0667-.1398-2.0075-.2357-2.8225-.0939-.815-.1398-1.8197-.1398-3.0102-1.5061,2.0075-3.5915,3.6854-6.2582,5.0337-2.6667,1.3483-6.1323,2.0215-10.397,2.0215ZM191.1825,68.7755c2.0694,0,3.9191-.3755,5.5511-1.1286,1.63-.7531,2.9164-1.8976,3.8572-3.4357.9408-1.5361,1.4122-3.2759,1.4122-5.2215v-2.0694h-11.2919c-2.1333,0-3.7173.5653-4.7521,1.6939-1.0347,1.1286-1.5521,2.415-1.5521,3.8572,0,1.8816.5174,3.4037,1.5521,4.5643,1.0347,1.1605,2.7765,1.7398,5.2235,1.7398Z"/><path class="d" d="M224.5827,77.8082V27.9406h13.3613v6.7735c1.2544-2.2572,3.214-4.1548,5.8806-5.6909,2.6647-1.5381,6.2242-2.3051,10.6786-2.3051,5.9585,0,10.4589,1.598,13.5031,4.798,3.0402,3.198,4.5623,7.8082,4.5623,13.8307v32.4614h-14.4899v-29.1675c0-3.2619-.7051-5.7228-2.1174-7.3868-1.4102-1.6619-3.7154-2.4929-6.9153-2.4929-2.3211,0-4.2187.4554-5.6929,1.3643s-2.5548,2.1014-3.2459,3.5755c-.6911,1.4742-1.0347,3.1201-1.0347,4.9398v29.1675h-14.4899Z"/><path class="d" d="M303.43,97.8491c-5.3952,0-9.7079-.6272-12.9378-1.8816-3.23-1.2544-5.583-3.0901-7.0552-5.5051-1.4762-2.415-2.3391-5.2215-2.5888-8.4195h14.7735c.3116,1.1286,1.0187,2.1953,2.1154,3.198s2.9963,1.5061,5.6929,1.5061c3.7633,0,6.6017-.8629,8.5153-2.5868,1.9136-1.7278,2.8704-4.4704,2.8704-8.2337v-5.3633c-1.6939,2.4469-3.8112,4.3126-6.3521,5.599-2.5408,1.2864-5.2215,1.9276-8.0439,1.9276-4.3286,0-8.1079-.9408-11.3378-2.8225-3.232-1.8816-5.7248-4.6722-7.4806-8.3735-1.7558-3.7014-2.6347-8.3735-2.6347-14.0205v-1.8816c0-5.2674.8609-9.7059,2.5868-13.3133,1.7258-3.6055,4.2027-6.3341,7.4347-8.1858,3.23-1.8497,7.0392-2.7745,11.4317-2.7745,3.8891,0,7.1351.831,9.7378,2.4929,2.6028,1.6619,4.5303,3.4976,5.7868,5.5031v-6.7735h13.3613v46.5737c0,7.7783-2.0874,13.611-6.2582,17.5021-4.1708,3.8871-10.7106,5.8327-19.6174,5.8327ZM303.9014,66.1408c2.0694,0,3.9191-.4694,5.5511-1.4102,1.63-.9408,2.9303-2.3071,3.9051-4.0929.9708-1.7878,1.4582-3.9051,1.4582-6.3521v-4.7041c0-2.383-.4874-4.3765-1.4582-5.9745-.9748-1.6-2.2752-2.8225-3.9051-3.6694-1.632-.8469-3.4816-1.2704-5.5511-1.2704-2.9503,0-5.3633,1.0207-7.2449,3.0582-1.8816,2.0375-2.8225,5.1276-2.8225,9.2664v1.8816c0,4.3286.9548,7.6225,2.8684,9.8796,1.9136,2.2592,4.3126,3.3878,7.199,3.3878Z"/><path class="d" d="M354.614,79.0307c-5.7089,0-10.0674-1.63-13.0776-4.8919-3.0122-3.2619-4.5163-8.2177-4.5163-14.8654v-31.3328h14.4899v29.0736c0,3.2619.6732,5.7388,2.0215,7.4327,1.3483,1.6939,3.5296,2.5408,6.5398,2.5408,2.1313,0,3.9051-.4375,5.3173-1.3164,1.4102-.8789,2.4609-2.0714,3.1521-3.5755.6891-1.5061,1.0347-3.2,1.0347-5.0816v-29.0736h14.4899v49.8676h-13.3613v-6.7735c-1.3184,2.2572-3.3099,4.1548-5.9745,5.6909-2.6667,1.5361-6.0384,2.3051-10.1153,2.3051Z"/><path class="d" d="M407.0204,79.0307c-3.5755,0-6.6317-.6911-9.1725-2.0694-2.5408-1.3783-4.4704-3.2759-5.7868-5.6929-1.3184-2.413-1.9755-5.0956-1.9755-8.0439,0-4.9538,1.5201-8.751,4.5623-11.3858,3.0422-2.6347,7.6364-3.9511,13.7847-3.9511h14.1143v-2.0694c0-3.0122-.7071-5.0816-2.1174-6.2102-1.4122-1.1286-3.3738-1.6939-5.8806-1.6939-2.385,0-4.1408.3615-5.2694,1.0826s-1.7578,1.8976-1.8816,3.5276h-14.4899c.1878-3.0102,1.1426-5.7069,2.8684-8.0919,1.7258-2.383,4.2027-4.2647,7.4347-5.6449,3.23-1.3803,7.165-2.0694,11.8072-2.0694,4.3905,0,8.2477.6572,11.5735,1.9755,3.3238,1.3164,5.9106,3.4337,7.7623,6.3501,1.8497,2.9164,2.7765,6.8215,2.7765,11.7153v18.347c0,2.6347.0619,4.9398.1878,6.9153.1238,1.9755.3136,3.9051.5633,5.7868h-13.8307c-.0619-1.0667-.1398-2.0075-.2357-2.8225-.0939-.815-.1398-1.8197-.1398-3.0102-1.5061,2.0075-3.5915,3.6854-6.2582,5.0337-2.6667,1.3483-6.1323,2.0215-10.397,2.0215ZM411.7265,68.7755c2.0694,0,3.9191-.3755,5.5511-1.1286,1.63-.7531,2.9164-1.8976,3.8572-3.4357.9408-1.5361,1.4122-3.2759,1.4122-5.2215v-2.0694h-11.2919c-2.1333,0-3.7173.5653-4.7521,1.6939-1.0347,1.1286-1.5521,2.415-1.5521,3.8572,0,1.8816.5174,3.4037,1.5521,4.5643,1.0347,1.1605,2.7765,1.7398,5.2235,1.7398Z"/><path class="d" d="M467.5766,97.8491c-5.3952,0-9.7079-.6272-12.9378-1.8816-3.23-1.2544-5.583-3.0901-7.0552-5.5051-1.4762-2.415-2.3391-5.2215-2.5888-8.4195h14.7735c.3116,1.1286,1.0187,2.1953,2.1154,3.198,1.0966,1.0027,2.9963,1.5061,5.6929,1.5061,3.7633,0,6.6017-.8629,8.5153-2.5868,1.9136-1.7278,2.8704-4.4704,2.8704-8.2337v-5.3633c-1.6939,2.4469-3.8112,4.3126-6.3521,5.599-2.5408,1.2864-5.2215,1.9276-8.0439,1.9276-4.3286,0-8.1079-.9408-11.3378-2.8225-3.232-1.8816-5.7248-4.6722-7.4806-8.3735-1.7558-3.7014-2.6347-8.3735-2.6347-14.0205v-1.8816c0-5.2674.8609-9.7059,2.5868-13.3133,1.7258-3.6055,4.2027-6.3341,7.4347-8.1858,3.23-1.8497,7.0392-2.7745,11.4317-2.7745,3.8891,0,7.1351.831,9.7378,2.4929,2.6028,1.6619,4.5303,3.4976,5.7868,5.5031v-6.7735h13.3613v46.5737c0,7.7783-2.0874,13.611-6.2582,17.5021-4.1708,3.8871-10.7106,5.8327-19.6174,5.8327ZM468.048,66.1408c2.0694,0,3.9191-.4694,5.5511-1.4102,1.63-.9408,2.9303-2.3071,3.9051-4.0929.9708-1.7878,1.4582-3.9051,1.4582-6.3521v-4.7041c0-2.383-.4874-4.3765-1.4582-5.9745-.9748-1.6-2.2752-2.8225-3.9051-3.6694-1.632-.8469-3.4816-1.2704-5.5511-1.2704-2.9503,0-5.3633,1.0207-7.2449,3.0582s-2.8225,5.1276-2.8225,9.2664v1.8816c0,4.3286.9548,7.6225,2.8684,9.8796,1.9136,2.2592,4.3126,3.3878,7.199,3.3878Z"/><path class="d" d="M525.0647,79.0307c-4.8939,0-9.2844-.9248-13.1735-2.7745-3.8891-1.8497-6.9793-4.6881-9.2684-8.5153-2.2891-3.8252-3.4337-8.6252-3.4337-14.396v-1.8816c0-5.5191,1.0966-10.0994,3.2939-13.7368,2.1953-3.6374,5.1895-6.382,8.9848-8.2337,3.7953-1.8497,8.012-2.7745,12.6562-2.7745,8.2157,0,14.4259,2.1154,18.6287,6.3501,4.2027,4.2347,6.3041,10.367,6.3041,18.395v5.2694h-35.0002c.1238,2.4449.7051,4.4844,1.7398,6.1143,1.0347,1.632,2.367,2.8085,3.999,3.5296,1.63.7211,3.3878,1.0826,5.2694,1.0826,2.7585,0,4.9398-.4235,6.5378-1.2704,1.6-.8469,2.6507-1.9915,3.1521-3.4357h13.3613c-1.0027,5.4572-3.4816,9.5361-7.4327,12.2327-3.9511,2.6966-9.1585,4.0449-15.6185,4.0449ZM524.5932,38.2896c-1.7558,0-3.4197.2836-4.9858.8469-1.57.5653-2.8404,1.4921-3.8112,2.7765-.9728,1.2864-1.5221,3.0262-1.6459,5.2215h20.7001c0-2.3191-.4714-4.1228-1.4122-5.4092s-2.1813-2.1793-3.7173-2.6826c-1.5361-.5014-3.2459-.7531-5.1276-.7531Z"/><path class="d" d="M164.3661,160.0333v-49.8676h13.3613v6.7735c1.2544-2.2572,3.214-4.1548,5.8806-5.6909,2.6647-1.5381,6.2242-2.3051,10.6786-2.3051,5.9585,0,10.4589,1.598,13.5031,4.798,3.0402,3.198,4.5623,7.8082,4.5623,13.8307v32.4614h-14.4899v-29.1675c0-3.2619-.7051-5.7228-2.1174-7.3868-1.4102-1.6619-3.7154-2.4929-6.9153-2.4929-2.3211,0-4.2187.4554-5.6929,1.3643-1.4742.9089-2.5548,2.1014-3.2459,3.5755s-1.0347,3.1201-1.0347,4.9398v29.1675h-14.4899Z"/><path class="d" d="M249.0461,161.2558c-3.5755,0-6.6317-.6911-9.1725-2.0694-2.5408-1.3783-4.4704-3.2759-5.7868-5.6929-1.3184-2.413-1.9755-5.0956-1.9755-8.0439,0-4.9538,1.5201-8.751,4.5623-11.3858,3.0422-2.6347,7.6364-3.9511,13.7847-3.9511h14.1143v-2.0694c0-3.0122-.7071-5.0816-2.1174-6.2102-1.4122-1.1286-3.3738-1.6939-5.8806-1.6939-2.385,0-4.1408.3615-5.2694,1.0826s-1.7578,1.8976-1.8816,3.5276h-14.4899c.1878-3.0102,1.1426-5.7069,2.8684-8.0919,1.7258-2.383,4.2027-4.2647,7.4347-5.6449,3.23-1.3803,7.165-2.0694,11.8072-2.0694,4.3905,0,8.2477.6572,11.5735,1.9755,3.3238,1.3164,5.9106,3.4337,7.7623,6.3501,1.8497,2.9164,2.7765,6.8215,2.7765,11.7153v18.347c0,2.6347.0619,4.9398.1878,6.9153.1238,1.9755.3136,3.9051.5633,5.7868h-13.8307c-.0619-1.0667-.1398-2.0075-.2357-2.8225-.0939-.815-.1398-1.8197-.1398-3.0102-1.5061,2.0075-3.5915,3.6854-6.2582,5.0337-2.6667,1.3483-6.1323,2.0215-10.397,2.0215ZM253.7522,151.0006c2.0694,0,3.9191-.3755,5.5511-1.1286,1.63-.7531,2.9164-1.8976,3.8572-3.4357.9408-1.5361,1.4122-3.2759,1.4122-5.2215v-2.0694h-11.2919c-2.1333,0-3.7173.5653-4.7521,1.6939-1.0347,1.1286-1.5521,2.415-1.5521,3.8572,0,1.8816.5174,3.4037,1.5521,4.5643,1.0347,1.1605,2.7765,1.7398,5.2235,1.7398Z"/><path class="d" d="M310.1097,161.2558c-4.8919,0-9.2524-.9408-13.0776-2.8225-3.8272-1.8816-6.8374-4.7341-9.0327-8.5613-2.1973-3.8252-3.2939-8.5932-3.2939-14.3021v-1.8816c0-5.2694,1.1446-9.7538,3.4337-13.4552,2.2891-3.7014,5.3633-6.5079,9.2225-8.4215,3.8572-1.9116,8.1059-2.8684,12.748-2.8684,5.0177,0,9.2205.8629,12.6082,2.5868,3.3878,1.7258,5.9905,4.031,7.8102,6.9153,1.8177,2.8864,2.8524,6.0844,3.1041,9.598h-14.9593c-.4395-2.2592-1.3343-3.999-2.6826-5.2235-1.3483-1.2225-3.3099-1.8337-5.8806-1.8337-2.0075,0-3.8112.4694-5.4092,1.4102-1.6.9408-2.8564,2.3391-3.7633,4.1888-.9109,1.8497-1.3643,4.2187-1.3643,7.1031v1.8816c0,3.0742.4375,5.615,1.3164,7.6205.8769,2.0095,2.1014,3.4976,3.6694,4.4704s3.4177,1.4582,5.5511,1.4582c2.1953,0,4.0609-.5793,5.599-1.7398,1.5361-1.1605,2.5248-2.9024,2.9643-5.2235h14.9593c-.2517,3.8911-1.3803,7.2769-3.3878,10.1613-2.0075,2.8864-4.7201,5.0976-8.1378,6.6337-3.4197,1.5361-7.4187,2.3051-11.997,2.3051Z"/><path class="d" d="M360.7323,160.5986c-4.1408,0-7.5286-.5513-10.1633-1.6479-2.6347-1.0966-4.5783-2.9164-5.8327-5.4572-1.2564-2.5408-1.8816-6.0045-1.8816-10.397v-21.0756h-6.1163v-11.8552h6.1163v-11.2919h14.4899v11.2919h11.3838v11.8552h-11.3838v18.7246c0,2.8225.4534,4.83,1.3643,6.0205.9089,1.1925,2.6806,1.7878,5.3153,1.7878,1.8816,0,3.7633-.0939,5.6449-.2816v11.7613c-1.1905.1878-2.4449.3296-3.7633.4235-1.3164.0939-3.0422.1418-5.1735.1418Z"/><path class="d" d="M423.0164,161.2558c-4.6422,0-8.8909-.9089-12.748-2.7286-3.8592-1.8177-6.9333-4.6562-9.2225-8.5153-2.2891-3.8572-3.4337-8.6711-3.4337-14.4419v-1.8816c0-5.3952,1.1446-9.9276,3.4337-13.597,2.2891-3.6694,5.3633-6.4439,9.2225-8.3256,3.8572-1.8816,8.1059-2.8225,12.748-2.8225,4.7041,0,8.9708.9408,12.796,2.8225s6.8834,4.6562,9.1745,8.3256c2.2891,3.6694,3.4337,8.2017,3.4337,13.597v1.8816c0,5.7089-1.1446,10.4609-3.4337,14.2542-2.2911,3.7972-5.3493,6.6497-9.1745,8.5633-3.8252,1.9116-8.0919,2.8684-12.796,2.8684ZM423.0164,149.2128c2.2592,0,4.1708-.5473,5.7408-1.6459,1.566-1.0966,2.7585-2.6826,3.5735-4.7521.815-2.0694,1.2245-4.4844,1.2245-7.2449v-1.8816c0-2.5089-.4095-4.7041-1.2245-6.5858-.815-1.8816-2.0075-3.3718-3.5735-4.4704-1.57-1.0966-3.4816-1.6459-5.7408-1.6459-2.2572,0-4.1728.5493-5.7388,1.6459-1.568,1.0986-2.7605,2.5888-3.5755,4.4704-.817,1.8816-1.2225,4.0769-1.2225,6.5858v1.8816c0,2.8864.4055,5.3493,1.2225,7.3868.815,2.0375,2.0075,3.5915,3.5755,4.6562,1.566,1.0687,3.4816,1.6,5.7388,1.6Z"/><path class="d" d="M454.5369,160.0333v-49.8676h13.3613v6.7735c1.2544-2.2572,3.214-4.1548,5.8806-5.6909,2.6647-1.5381,6.2242-2.3051,10.6786-2.3051,5.9585,0,10.4589,1.598,13.5031,4.798,3.0402,3.198,4.5623,7.8082,4.5623,13.8307v32.4614h-14.4899v-29.1675c0-3.2619-.7051-5.7228-2.1174-7.3868-1.4102-1.6619-3.7154-2.4929-6.9153-2.4929-2.3211,0-4.2187.4554-5.6929,1.3643s-2.5548,2.1014-3.2459,3.5755c-.6911,1.4742-1.0347,3.1201-1.0347,4.9398v29.1675h-14.4899Z"/><path class="d" d="M392.2336,97.4226c0,4.6674-3.7837,8.4512-8.4512,8.4512s-8.4512-3.7837-8.4512-8.4512,3.7837-8.4512,8.4512-8.4512,8.4512,3.7837,8.4512,8.4512ZM391.0264,160.0333v-49.8676h-14.4899v49.8676h14.4899Z"/><path class="d" d="M156.8242,97.4226c0,4.6674-3.7837,8.4512-8.4512,8.4512s-8.4512-3.7837-8.4512-8.4512,3.7837-8.4512,8.4512-8.4512,8.4512,3.7837,8.4512,8.4512ZM155.617,160.0333v-49.8676h-14.4899v49.8676h14.4899Z"/><path class="d" d="M60.849,49.9531c-2.664-11.6829-14.0015-19.2945-25.7993-17.3266l-2.4338.5459-.2002.0551c-11.4876,3.3451-18.4031,15.1181-15.7391,26.7958,2.3936,10.5011,11.7579,17.6419,22.0937,17.6419,1.6576,0,3.3451-.1853,5.0327-.5708,5.889-1.3421,10.9116-4.9075,14.1366-10.0404,3.2198-5.1327,4.2516-11.207,2.9095-17.101ZM51.1395,62.5698l-2.572-14.5864c-3.06,1.1283-5.5955,3.2017-7.3278,5.813,2.4074,2.6115,4.123,5.9171,4.7856,9.6751l-4.1117.7251c-.4074-2.3106-1.3261-4.4041-2.617-6.1876-.603,2.1175-.7503,4.3989-.3429,6.7095l-4.1117.725c-.6625-3.758-.1811-7.4511,1.1879-10.7286-2.5208-1.8612-5.6125-2.9423-8.8739-2.9561l2.5719,14.5864-4.1784.7368-3.3273-18.8709c.5005-.1302,1.0075-.2471,1.5257-.3385.8966-.1581,1.789-.2467,2.6738-.2784,4.2548-.1526,8.3132,1.1203,11.6446,3.4368,2.3383-3.3162,5.7166-5.9004,9.767-7.2122.8422-.2728,1.7111-.4948,2.6077-.6529.5182-.0914,1.0346-.1549,1.5494-.2037l3.3275,18.8709-4.1783.7367ZM93.3876,24.3851c-6.6512-6.6557-15.6509-10.9316-25.6134-11.5726-2.1172-7.4397-8.1282-12.8125-15.2262-12.8125s-13.1095,5.3728-15.2266,12.8125c-9.9625.6411-18.9629,4.917-25.6186,11.5726C4.4818,31.6111,0,41.5813,0,52.5681v94.324c0,1.1448.1386,2.2566.3803,3.3301.6343,2.8228,2.0491,5.3537,4.018,7.3419.0203.0206.0381.0439.0586.0644l.0005.0005.0005.0005c2.7542,2.7542,6.555,4.4618,10.7414,4.4618h74.699c2.032,0,3.9708-.4099,5.7466-1.1404,1.163-.4783,2.2467-1.1035,3.2447-1.8413.615-.4543,1.2055-.9403,1.7451-1.48,1.0267-1.0247,1.9061-2.1961,2.6067-3.4786,1.181-2.1585,1.8542-4.6325,1.8542-7.2588V52.5681c0-10.9868-4.4819-20.957-11.7078-28.183ZM52.548,6.196c3.7157,0,6.5642,2.624,7.9945,6.4861h-15.9894c1.4305-3.8622,4.2789-6.4861,7.9949-6.4861ZM15.2834,27.9655c5.5639-5.5639,12.9956-9.2535,21.2495-10.05,1.1062-.1067,2.2247-.1705,3.358-.1705h25.3136c1.1333,0,2.2521.0638,3.3582.1705,8.2527.7965,15.6804,4.4861,21.2444,10.05,3.9835,3.9835,6.9643,8.9386,8.6442,14.4543-1.6774-2.6331-3.6729-5.073-5.995-7.2212-6.9957-6.4749-16.6407-10.491-27.2518-10.491h-25.3136c-10.6162,0-20.256,4.0161-27.2516,10.491-2.3233,2.1494-4.3202,4.591-5.998,7.2257,1.6784-5.5176,4.6574-10.4741,8.6421-14.4588ZM12.1341,48.1574c0,.5859-.4758,1.0566-1.0567,1.0566s-1.0566-.4707-1.0566-1.0566.4758-1.0567,1.0566-1.0567,1.0567.4708,1.0567,1.0567ZM100.0288,146.893c0,2.7893-1.1368,5.3231-2.9748,7.1559-1.8377,1.8378-4.3715,2.9745-7.1558,2.9745H15.1992c-2.7893,0-5.3232-1.1367-7.1609-2.9745-1.8378-1.8328-2.9747-4.3667-2.9747-7.1559v-11.0769h8.5446v5.6937c0,1.392.5709,2.6589,1.4874,3.5754l.01.01c.9164.9164,2.1833,1.4873,3.5754,1.4873h68.049c1.0819,0,2.0794-.3517,2.9031-.9356.237-.1672.4652-.3472.6709-.5517l.01-.01c.4375-.4398.788-.9612,1.0422-1.5333.012-.0267.0305-.0497.0419-.0767.03-.0714.0427-.1506.0697-.2235.2027-.5458.3298-1.1281.3298-1.7419v-5.6937h8.2312v11.0769ZM86.735,88.0232v9.1294H18.676v-9.1294l.005-.0051h68.049v.0051h.005ZM26.1604,110.2437c0,1.0015-.8112,1.8127-1.8127,1.8127s-1.8127-.8112-1.8127-1.8127.8112-1.8129,1.8127-1.8129,1.8127.8114,1.8127,1.8129ZM20.8924,102.2153v8.8446c0,1.4572,1.1869,2.6439,2.6441,2.6439h1.6275c1.4572,0,2.6441-1.1868,2.6441-2.6439v-8.8446h58.927v28.538h-.0015v10.7614H18.676v-39.2994h2.2164ZM101.2947,130.7534h-9.4971v-42.7301c0-1.3973-.5708-2.6642-1.4871-3.5855-.9164-.9164-2.1833-1.4823-3.5805-1.4823H18.681c-1.3971,0-2.664.5659-3.5854,1.4823-.9165.9213-1.4874,2.1883-1.4874,3.5855v42.7301H3.8009V60.5472c0-6.3041,1.9471-12.1882,5.2635-17.2218v5.3076c0,.8513.691,1.5424,1.5423,1.5424h.9464c.8513,0,1.5423-.6911,1.5423-1.5424v-10.3087c.4172-.4276.8161-.8709,1.2564-1.278,6.5399-6.0542,15.5738-9.8049,25.539-9.8049h25.3136c9.9604,0,18.9991,3.7507,25.5389,9.8049,6.5099,6.0242,10.5513,14.3421,10.5513,23.501v70.2061Z"/></g></svg>